<?xml version="1.0" encoding="UTF-8" standalone="no"?>
<!-- Created with Inkscape (http://www.inkscape.org/) -->

<svg
   width="185mm"
   height="50mm"
   viewBox="0 0 185 50"
   version="1.1"
   id="svg5"
   inkscape:version="1.1.1 (3bf5ae0d25, 2021-09-20)"
   sodipodi:docname="Messages.svg"
   xmlns:inkscape="http://www.inkscape.org/namespaces/inkscape"
   xmlns:sodipodi="http://sodipodi.sourceforge.net/DTD/sodipodi-0.dtd"
   xmlns:xlink="http://www.w3.org/1999/xlink"
   xmlns="http://www.w3.org/2000/svg"
   xmlns:svg="http://www.w3.org/2000/svg">
  <sodipodi:namedview
     id="namedview7"
     pagecolor="#ffffff"
     bordercolor="#999999"
     borderopacity="1"
     inkscape:pageshadow="0"
     inkscape:pageopacity="0"
     inkscape:pagecheckerboard="0"
     inkscape:document-units="mm"
     showgrid="false"
     inkscape:zoom="0.68536186"
     inkscape:cx="362.58218"
     inkscape:cy="-101.40629"
     inkscape:window-width="1366"
     inkscape:window-height="745"
     inkscape:window-x="-8"
     inkscape:window-y="-8"
     inkscape:window-maximized="1"
     inkscape:current-layer="layer1" />
  <defs
     id="defs2" />
  <g
     inkscape:label="Capa 1"
     inkscape:groupmode="layer"
     id="layer1">
    <g
       aria-label="FAR!!"
       transform="matrix(0.96858128,-0.33445167,0.3478102,0.91233881,-8.502421,-15.601107)"
       id="text3482"
       style="font-weight:bold;font-size:16.8165px;line-height:1.25;font-family:'Malgun Gothic';-inkscape-font-specification:'Malgun Gothic Bold';fill:#d40000;stroke-width:0.264583">
      <path
         style="fill:#ffffff;stroke-width:0.264583"
         sodipodi:type="inkscape:offset"
         inkscape:radius="0.49399352"
         inkscape:original="M -2.2207031 42.03125 A 2.6671587 2.6671587 0 0 0 -4.8867188 44.697266 L -4.8867188 56.783203 A 2.6671587 2.6671587 0 0 0 -2.2207031 59.449219 L 0.11914062 59.449219 A 2.6671587 2.6671587 0 0 0 1.9765625 57.591797 A 2.6671587 2.6671587 0 0 0 4.2578125 59.449219 L 6.8125 59.449219 A 2.6671587 2.6671587 0 0 0 9.3457031 57.617188 L 9.6933594 56.558594 L 10.390625 56.558594 L 10.753906 57.636719 A 2.6671587 2.6671587 0 0 0 13.28125 59.449219 L 15.835938 59.449219 A 2.6671587 2.6671587 0 0 0 17.025391 59.054688 A 2.6671587 2.6671587 0 0 0 17.419922 59.449219 L 19.759766 59.449219 A 2.6671587 2.6671587 0 0 0 21.724609 57.484375 L 22.130859 58.158203 A 2.6671587 2.6671587 0 0 0 24.416016 59.449219 L 27.125 59.449219 A 2.6671587 2.6671587 0 0 0 27.919922 59.154297 C 28.547158 59.445091 29.198582 59.630859 29.787109 59.630859 C 30.720107 59.630862 31.73399 59.205022 32.419922 58.591797 C 33.242797 59.318233 34.326524 59.630857 35.222656 59.630859 C 36.187645 59.630857 37.254948 59.189239 37.939453 58.541016 C 38.676967 57.845094 39.160156 56.695946 39.160156 55.707031 C 39.160154 54.960192 38.821784 54.187414 38.375 53.53125 A 2.6671587 2.6671587 0 0 0 38.708984 53.208984 L 38.988281 44.785156 A 2.6671587 2.6671587 0 0 0 36.322266 42.03125 L 33.908203 42.03125 A 2.6671587 2.6671587 0 0 0 32.474609 42.638672 A 2.6671587 2.6671587 0 0 0 30.886719 42.03125 L 28.472656 42.03125 A 2.6671587 2.6671587 0 0 0 26.287109 43.537109 C 25.788344 43.094098 25.23993 42.720083 24.625 42.501953 C 23.638733 42.152102 22.61302 42.03125 21.525391 42.03125 L 17.419922 42.03125 A 2.6671587 2.6671587 0 0 0 14.753906 44.697266 L 14.753906 46.021484 L 13.939453 43.785156 A 2.6671587 2.6671587 0 0 0 11.433594 42.03125 L 8.7324219 42.03125 A 2.6671587 2.6671587 0 0 0 6.2421875 43.761719 A 2.6671587 2.6671587 0 0 0 4.5117188 42.03125 L -2.2207031 42.03125 z M 37.904297 52.855469 L 37.945312 52.896484 C 37.939313 52.89074 37.929875 52.888528 37.923828 52.882812 C 37.916073 52.875549 37.912101 52.862622 37.904297 52.855469 z "
         xlink:href="#path55064"
         id="path55237"
         inkscape:href="#path55064"
         d="m -2.2207031,41.537109 c -0.8271363,3.55e-4 -1.6495014,0.340908 -2.234375,0.925782 -0.5848737,0.584873 -0.925427,1.407238 -0.9257813,2.234375 v 12.085937 c 3.543e-4,0.827136 0.3409076,1.649501 0.9257813,2.234375 0.5848736,0.584874 1.4072387,0.925427 2.234375,0.925781 h 2.33984372 a 0.49404292,0.49404292 0 0 0 0.1328125,-0.01758 c 0.71713254,-0.19887 1.26727728,-0.719176 1.68749998,-1.332031 0.5269001,0.737116 1.3650863,1.257635 2.2695313,1.347656 a 0.49404292,0.49404292 0 0 0 0.048828,0.002 H 6.8125 c 1.3196607,8.1e-5 2.5887474,-0.918573 3.0019531,-2.171875 l 0.2285159,-0.695312 0.242187,0.71875 c 0.420347,1.242617 1.684306,2.148844 2.996094,2.148437 h 2.554688 a 0.49404292,0.49404292 0 0 0 0.04101,-0.002 c 0.355357,-0.02961 0.6804,-0.188343 1.005859,-0.333984 0.07574,0.07521 0.143609,0.159397 0.226563,0.226562 a 0.49404292,0.49404292 0 0 0 0.310547,0.109375 h 2.339844 a 0.49404292,0.49404292 0 0 0 0.117187,-0.01367 c 0.807352,-0.195418 1.417294,-0.791385 1.853516,-1.496094 0.56367,0.913047 1.612164,1.509939 2.685547,1.509765 H 27.125 a 0.49404292,0.49404292 0 0 0 0.0957,-0.0098 c 0.243228,-0.0482 0.470005,-0.154288 0.695313,-0.257813 0.61256,0.262185 1.246881,0.449219 1.871093,0.449219 0.956614,3e-6 1.891224,-0.400683 2.642579,-0.966797 0.874715,0.639748 1.892689,0.966795 2.792968,0.966797 1.115703,-2e-6 2.267322,-0.477128 3.056641,-1.224609 0.85661,-0.808302 1.375,-2.043533 1.375,-3.19336 -2e-6,-0.750895 -0.299381,-1.44792 -0.671875,-2.078125 0.03169,-0.03336 0.0694,-0.06099 0.09961,-0.0957 a 0.49404292,0.49404292 0 0 0 0.121094,-0.308594 l 0.279297,-8.423828 C 39.509898,43.956449 39.181335,43.106956 38.59375,42.5 38.006165,41.893044 37.167045,41.537025 36.322266,41.537109 h -2.414063 a 0.49404292,0.49404292 0 0 0 -0.05078,0.002 c -0.500178,0.0525 -0.970123,0.255604 -1.390625,0.53125 C 31.996269,41.76924 31.4646,41.560009 30.90625,41.537109 a 0.49404292,0.49404292 0 0 0 -0.01953,0 h -2.414063 a 0.49404292,0.49404292 0 0 0 -0.04102,0.002 c -0.909757,0.07526 -1.695836,0.635394 -2.232422,1.371094 -0.434699,-0.338972 -0.87138,-0.682623 -1.408203,-0.873047 -1.054191,-0.373945 -2.141403,-0.5 -3.265625,-0.5 h -4.105469 c -0.827136,3.55e-4 -1.649501,0.340908 -2.234375,0.925782 -0.35483,0.354829 -0.580774,0.805649 -0.734375,1.283203 l -0.04687,-0.13086 C 13.963655,42.406129 12.720489,41.537146 11.433594,41.537109 H 8.7324219 a 0.49404292,0.49404292 0 0 0 -0.00195,0 C 7.7559485,41.539681 6.8151065,42.045523 6.2226562,42.814453 5.8262647,42.251552 5.3187374,41.770001 4.6621094,41.560547 a 0.49404292,0.49404292 0 0 0 -0.1503906,-0.02344 z" />
      <path
         style="fill:#000000;stroke-width:0.264583"
         sodipodi:type="inkscape:offset"
         inkscape:radius="2.6668921"
         inkscape:original="M -2.2207031 44.697266 L -2.2207031 56.783203 L 0.11914062 56.783203 L 0.11914062 51.890625 L 4.1679688 51.890625 L 4.1679688 49.96875 L 0.11914062 49.96875 L 0.11914062 46.642578 L 4.5117188 46.642578 L 4.5117188 44.697266 L -2.2207031 44.697266 z M 8.7324219 44.697266 L 4.2578125 56.783203 L 6.8125 56.783203 L 7.7636719 53.892578 L 12.304688 53.892578 L 13.28125 56.783203 L 15.835938 56.783203 L 11.433594 44.697266 L 8.7324219 44.697266 z M 17.419922 44.697266 L 17.419922 56.783203 L 19.759766 56.783203 L 19.759766 52.013672 L 20.615234 52.013672 C 20.932734 52.013673 21.228247 52.113866 21.501953 52.316406 C 21.775658 52.51895 22.105478 52.943898 22.494141 53.589844 L 24.416016 56.783203 L 27.125 56.783203 L 24.84375 53.195312 C 24.175906 52.138807 23.564605 51.518152 23.011719 51.332031 L 23.011719 51.298828 C 23.876631 51.052494 24.542514 50.636511 25.007812 50.050781 C 25.478587 49.459576 25.712893 48.764065 25.712891 47.964844 C 25.712892 46.466985 25.053936 45.483704 23.734375 45.015625 C 23.134574 44.802862 22.397828 44.697266 21.525391 44.697266 L 17.419922 44.697266 z M 28.472656 44.697266 L 28.744141 53.121094 L 30.607422 53.121094 L 30.886719 44.697266 L 28.472656 44.697266 z M 33.908203 44.697266 L 34.179688 53.121094 L 36.042969 53.121094 L 36.322266 44.697266 L 33.908203 44.697266 z M 19.759766 46.519531 L 21.197266 46.519531 C 21.624932 46.519531 21.985277 46.575242 22.279297 46.6875 C 22.926142 46.934476 23.25 47.453815 23.25 48.244141 C 23.25 48.797028 23.05897 49.260572 22.675781 49.632812 C 22.298068 49.999578 21.791249 50.181642 21.15625 50.181641 L 19.759766 50.181641 L 19.759766 46.519531 z M 9.9980469 46.660156 L 10.054688 46.660156 C 10.120378 47.152828 10.183928 47.486936 10.244141 47.662109 L 11.722656 52.037109 L 8.3066406 52.037109 L 9.7910156 47.644531 C 9.8840756 47.354402 9.9542545 47.026921 9.9980469 46.660156 z M 29.705078 54.451172 C 29.321889 54.451173 28.994795 54.5693 28.726562 54.804688 C 28.45833 55.040076 28.32422 55.340267 28.324219 55.707031 C 28.324218 56.051902 28.453654 56.349366 28.710938 56.595703 C 28.968221 56.842038 29.327283 56.964844 29.787109 56.964844 C 30.126506 56.964845 30.422016 56.844378 30.673828 56.603516 C 30.931111 56.362656 31.058594 56.064801 31.058594 55.708984 C 31.058594 55.35864 30.928772 55.063127 30.666016 54.822266 C 30.537375 54.699097 30.392542 54.606506 30.232422 54.544922 C 30.072305 54.483332 29.896671 54.451172 29.705078 54.451172 z M 35.140625 54.451172 C 34.757436 54.451173 34.430341 54.569302 34.162109 54.804688 C 33.893876 55.040075 33.759767 55.342217 33.759766 55.708984 C 33.759766 56.053853 33.889198 56.349367 34.146484 56.595703 C 34.403767 56.84204 34.762828 56.964843 35.222656 56.964844 C 35.562051 56.964843 35.857566 56.844376 36.109375 56.603516 C 36.366658 56.362653 36.494141 56.062847 36.494141 55.707031 C 36.49414 55.356687 36.364323 55.063126 36.101562 54.822266 C 35.972921 54.699097 35.828089 54.606508 35.667969 54.544922 C 35.507851 54.483342 35.332219 54.451172 35.140625 54.451172 z "
         xlink:href="#path54690"
         id="path55064"
         inkscape:href="#path54690"
         d="m -2.2207031,42.03125 a 2.6671587,2.6671587 0 0 0 -2.6660157,2.666016 v 12.085937 a 2.6671587,2.6671587 0 0 0 2.6660157,2.666016 h 2.33984372 a 2.6671587,2.6671587 0 0 0 1.85742188,-1.857422 2.6671587,2.6671587 0 0 0 2.28125,1.857422 H 6.8125 a 2.6671587,2.6671587 0 0 0 2.5332031,-1.832031 l 0.3476563,-1.058594 h 0.6972656 l 0.363281,1.078125 a 2.6671587,2.6671587 0 0 0 2.527344,1.8125 h 2.554688 a 2.6671587,2.6671587 0 0 0 1.189453,-0.394531 2.6671587,2.6671587 0 0 0 0.394531,0.394531 h 2.339844 a 2.6671587,2.6671587 0 0 0 1.964843,-1.964844 l 0.40625,0.673828 a 2.6671587,2.6671587 0 0 0 2.285157,1.291016 H 27.125 a 2.6671587,2.6671587 0 0 0 0.794922,-0.294922 c 0.627236,0.290794 1.27866,0.476562 1.867187,0.476562 0.932998,3e-6 1.946881,-0.425837 2.632813,-1.039062 0.822875,0.726436 1.906602,1.03906 2.802734,1.039062 0.964989,-2e-6 2.032292,-0.44162 2.716797,-1.089843 0.737514,-0.695922 1.220703,-1.84507 1.220703,-2.833985 -2e-6,-0.746839 -0.338372,-1.519617 -0.785156,-2.175781 a 2.6671587,2.6671587 0 0 0 0.333984,-0.322266 l 0.279297,-8.423828 A 2.6671587,2.6671587 0 0 0 36.322266,42.03125 h -2.414063 a 2.6671587,2.6671587 0 0 0 -1.433594,0.607422 2.6671587,2.6671587 0 0 0 -1.58789,-0.607422 h -2.414063 a 2.6671587,2.6671587 0 0 0 -2.185547,1.505859 C 25.788344,43.094098 25.23993,42.720083 24.625,42.501953 23.638733,42.152102 22.61302,42.03125 21.525391,42.03125 h -4.105469 a 2.6671587,2.6671587 0 0 0 -2.666016,2.666016 v 1.324218 L 13.939453,43.785156 A 2.6671587,2.6671587 0 0 0 11.433594,42.03125 H 8.7324219 A 2.6671587,2.6671587 0 0 0 6.2421875,43.761719 2.6671587,2.6671587 0 0 0 4.5117188,42.03125 Z m 40.1250001,10.824219 0.04102,0.04102 c -0.006,-0.0057 -0.01544,-0.008 -0.02148,-0.01367 -0.0078,-0.0073 -0.01173,-0.02019 -0.01953,-0.02734 z m -5.386719,5.675781 c -0.0072,0.0065 -0.01628,0.01302 -0.01367,0.0098 0.0039,-0.0037 0.0098,-0.0061 0.01367,-0.0098 z" />
      <path
         id="path54690"
         style="stroke-width:0.264583"
         d="m 36.322223,44.696815 -2.413652,-7.1e-5 0.270766,8.425024 1.863767,-4.32e-4 z m -5.435588,3.8e-5 -2.414123,-2.43e-4 0.270766,8.425026 1.864237,-2.6e-4 z m -7.152452,0.319408 c -0.599801,-0.212763 -1.33579,-0.319558 -2.208227,-0.319558 l -4.105656,4.57e-4 -2.3e-5,12.086765 2.340142,-2.54e-4 4.5e-5,-4.770915 0.854028,4.12e-4 c 0.3175,10e-7 0.612876,0.100945 0.886582,0.303485 0.273705,0.202544 0.604952,0.626836 0.993615,1.272782 l 1.921741,3.194456 2.709353,-2.84e-4 -2.282352,-3.588335 c -0.667844,-1.056505 -1.278523,-1.677558 -1.831409,-1.863679 l 5.2e-5,-0.03283 c 0.864912,-0.246334 1.530124,-0.662401 1.995423,-1.248131 0.470775,-0.591205 0.706211,-1.286291 0.706209,-2.085512 1e-6,-1.497859 -0.659962,-2.480777 -1.979523,-2.948856 z m -1.454055,1.672025 c 0.646845,0.246976 0.969884,0.765458 0.969884,1.555784 0,0.552887 -0.191446,1.015536 -0.574635,1.387776 -0.377713,0.366765 -0.884021,0.549925 -1.51902,0.549924 l -1.39583,3.49e-4 1.1e-5,-3.66245 1.436808,-5.1e-5 c 0.427666,0 0.788762,0.05641 1.082782,0.168668 z M 11.434176,44.697025 8.7329756,44.696896 4.2577957,56.78347 l 2.553823,4.79e-4 0.9526546,-2.890674 4.5402237,2.52e-4 0.9773,2.89015 2.554002,-2.1e-5 z m 24.233506,9.847166 c -0.160118,-0.06158 -0.335907,-0.09255 -0.527501,-0.09255 -0.383189,10e-7 -0.709029,0.117782 -0.977261,0.353167 -0.268233,0.235387 -0.402244,0.53648 -0.402245,0.903247 0,0.344869 0.128515,0.640498 0.385801,0.886834 0.257283,0.246337 0.615947,0.369444 1.075775,0.369445 0.339395,-10e-7 0.635038,-0.120532 0.886847,-0.361392 0.257283,-0.240863 0.385964,-0.539238 0.385964,-0.895054 -10e-7,-0.350344 -0.131664,-0.645736 -0.394424,-0.886596 -0.128641,-0.123169 -0.272836,-0.215513 -0.432956,-0.277099 z M 10.055137,46.659365 c 0.06569,0.492672 0.128426,0.826869 0.188639,1.002042 l 1.478078,4.37649 -3.4160004,-4.82e-4 1.4861361,-4.39266 c 0.09306,-0.290129 0.1617853,-0.618771 0.2055777,-0.985536 z m -5.5429532,-1.962305 -6.7329864,-3.48e-4 -2.4e-5,12.086768 2.33996193,2.44e-4 3.8665e-4,-4.893702 4.04790662,-1.03e-4 6.12e-5,-1.921264 -4.04837831,-7e-5 2.7239e-4,-3.325902 4.39302562,1.01e-4 z m 25.7194392,9.846998 c -0.160117,-0.06159 -0.335907,-0.09255 -0.5275,-0.09255 -0.383189,1e-6 -0.708559,0.117955 -0.976792,0.353342 -0.268233,0.235388 -0.402714,0.536308 -0.402715,0.903072 -10e-7,0.344871 0.128989,0.640672 0.386272,0.887009 0.257283,0.246335 0.615476,0.369269 1.075302,0.369269 0.339397,1e-6 0.635037,-0.120529 0.886849,-0.361391 0.257283,-0.24086 0.385784,-0.538735 0.385784,-0.894552 0,-0.350344 -0.131014,-0.646063 -0.39377,-0.886924 -0.128641,-0.123169 -0.27331,-0.215687 -0.43343,-0.277271 z" />
    </g>
    <path
       style="font-weight:bold;font-size:17.7484px;line-height:1.25;font-family:'Malgun Gothic';-inkscape-font-specification:'Malgun Gothic Bold';fill:#ffffff;stroke-width:0.264583"
       sodipodi:type="inkscape:offset"
       inkscape:radius="1.3412851"
       inkscape:original="M 105.2832 9.5742188 C 104.22015 9.5829844 103.17509 9.810963 102.0957 10.181641 L 97.896484 11.623047 A 2.5693604 2.5693604 0 0 0 96.328125 14.964844 L 97.339844 17.632812 L 94.533203 14.455078 A 2.5693604 2.5693604 0 0 0 91.773438 13.726562 L 89.009766 14.675781 A 2.5693604 2.5693604 0 0 0 87.275391 17.074219 L 87.232422 20.626953 A 2.5693604 2.5693604 0 0 0 87.113281 20.076172 L 86.400391 18.201172 A 2.5693604 2.5693604 0 0 0 83.164062 16.683594 L 76.287109 19.044922 A 2.5693604 2.5693604 0 0 0 74.78125 20.734375 A 2.5693604 2.5693604 0 0 0 73.335938 20.056641 L 71.060547 20.839844 A 2.5693604 2.5693604 0 0 0 69.494141 24.179688 L 69.697266 24.712891 L 67.5625 23.183594 A 2.5693604 2.5693604 0 0 0 65.232422 22.841797 L 62.5625 23.757812 A 2.5693604 2.5693604 0 0 0 60.994141 27.099609 L 65.412109 38.746094 A 2.5693604 2.5693604 0 0 0 68.650391 40.263672 L 70.933594 39.478516 A 2.5693604 2.5693604 0 0 0 72.5 36.138672 L 72.21875 35.394531 L 74.597656 37.085938 A 2.5693604 2.5693604 0 0 0 76.919922 37.421875 L 79.423828 36.5625 A 2.5693604 2.5693604 0 0 0 80.970703 34.892578 A 2.5693604 2.5693604 0 0 0 82.371094 35.550781 L 89.527344 33.09375 A 2.5693604 2.5693604 0 0 0 90.117188 32.691406 A 2.5693604 2.5693604 0 0 0 90.517578 32.751953 L 93.130859 31.855469 A 2.5693604 2.5693604 0 0 0 94.865234 29.357422 L 94.832031 28.123047 L 96.027344 27.712891 L 96.949219 28.806641 A 2.5693604 2.5693604 0 0 0 99.748047 29.582031 L 102.36133 28.685547 A 2.5693604 2.5693604 0 0 0 103.42188 27.865234 A 2.5693604 2.5693604 0 0 0 103.98438 28.128906 L 106.37695 27.306641 A 2.5693604 2.5693604 0 0 0 108.01562 24.726562 L 108.74023 25.28125 A 2.5693604 2.5693604 0 0 0 111.13867 25.671875 L 113.91016 24.71875 A 2.5693604 2.5693604 0 0 0 114.58594 20.212891 L 110.94531 17.5625 L 110.94141 17.560547 C 110.90202 17.531694 110.86337 17.51483 110.82422 17.486328 C 110.83341 17.461939 110.85442 17.444479 110.86328 17.419922 C 111.32769 16.134229 111.29032 14.645029 110.81055 13.378906 L 110.81055 13.376953 C 109.98156 11.193568 107.61907 9.5550007 105.2832 9.5742188 z M 87.222656 21.46875 L 87.205078 22.818359 A 2.5693604 2.5693604 0 0 0 86.701172 22.582031 A 2.5693604 2.5693604 0 0 0 87.222656 21.46875 z "
       xlink:href="#path55427"
       id="path55467"
       inkscape:href="#path55427"
       d="m 105.27148,8.2324219 c -1.24754,0.010287 -2.44018,0.2775016 -3.61132,0.6796875 l -4.199222,1.4414066 c -1.264485,0.433871 -2.122006,1.612533 -2.431641,2.904296 -1.031387,-0.836643 -2.430394,-1.233856 -3.691406,-0.800781 a 1.3414192,1.3414192 0 0 0 0,0.002 l -2.763672,0.949219 c -1.178223,0.404768 -1.940492,1.476363 -2.304688,2.662109 -1.022357,-0.732755 -2.34525,-1.066863 -3.541015,-0.65625 l -6.876954,2.361329 a 1.3414192,1.3414192 0 0 0 -0.07031,0.02734 c -0.633866,0.258138 -1.148222,0.717933 -1.568359,1.257813 C 73.960183,18.974244 73.765088,18.757274 73.5,18.724609 a 1.3414192,1.3414192 0 0 0 -0.601562,0.06445 l -2.275391,0.783204 c -1.131957,0.389639 -1.935174,1.377073 -2.324219,2.503906 -1.004772,-0.699903 -2.343304,-0.901313 -3.501953,-0.503906 l -2.669922,0.916015 c -1.976385,0.678139 -3.127995,3.13431 -2.386719,5.087891 l 4.417969,11.646484 c 0.71223,1.876114 3.030225,2.961688 4.927735,2.308594 l 2.283203,-0.785156 a 1.3414192,1.3414192 0 0 0 0.002,0 c 1.174439,-0.404263 1.990822,-1.452292 2.357422,-2.632813 l 0.0918,0.06641 c 1.007707,0.716151 2.365812,0.912939 3.535157,0.511718 l 2.503906,-0.859375 a 1.3414192,1.3414192 0 0 0 0.04297,-0.01563 c 0.650208,-0.248254 1.17876,-0.710662 1.613281,-1.253906 0.239722,0.08194 0.426601,0.284631 0.677734,0.318359 a 1.3414192,1.3414192 0 0 0 0.613282,-0.06055 l 7.15625,-2.457031 a 1.3414192,1.3414192 0 0 0 0.158203,-0.06641 c 0.110317,-0.05455 0.200013,-0.142311 0.304687,-0.207031 a 1.3414192,1.3414192 0 0 0 0.527344,-0.06836 L 93.566406,33.125 c 1.413547,-0.485154 2.347264,-1.8838 2.501953,-3.363281 1.024247,1.10246 2.688928,1.578989 4.115231,1.089843 l 2.61329,-0.896484 a 1.3414192,1.3414192 0 0 0 0.0801,-0.03125 c 0.26761,-0.111375 0.44333,-0.35764 0.67969,-0.52539 0.003,0.0011 0.006,0.0028 0.01,0.0039 a 1.3414192,1.3414192 0 0 0 0.85351,-0.0059 l 2.39258,-0.822265 a 1.3414192,1.3414192 0 0 0 0.0469,-0.01563 c 0.86394,-0.333047 1.50434,-1.025389 1.94531,-1.837891 0.88428,0.373049 1.8604,0.531286 2.76953,0.21875 l 2.77148,-0.953125 a 1.3414192,1.3414192 0 0 0 0.002,0 c 1.3434,-0.462964 2.38104,-1.711967 2.59179,-3.117187 0.21076,-1.405221 -0.41597,-2.903543 -1.56445,-3.740235 l -3.08594,-2.246094 c 0.26325,-1.304498 0.2428,-2.644804 -0.20508,-3.878906 -0.0116,-0.0319 -0.007,-0.06788 -0.0195,-0.09961 a 1.3414192,1.3414192 0 0 0 0,-0.0039 c -1.05011,-2.765769 -3.82246,-4.6924086 -6.79297,-4.6679691 z"
       transform="translate(0,0.01099663)" />
    <path
       style="font-weight:bold;font-size:17.7484px;line-height:1.25;font-family:'Malgun Gothic';-inkscape-font-specification:'Malgun Gothic Bold';fill:#000000;stroke-width:0.264583"
       sodipodi:type="inkscape:offset"
       inkscape:radius="2.5691035"
       inkscape:original="M 105.30469 12.142578 C 104.61343 12.148278 103.82206 12.304874 102.92969 12.611328 L 98.730469 14.052734 L 103.14844 25.699219 L 105.54102 24.876953 L 103.79688 20.28125 L 104.67188 19.980469 C 104.99663 19.868945 105.33547 19.863879 105.68945 19.962891 C 106.04344 20.061901 106.53631 20.35399 107.16992 20.839844 L 110.30273 23.242188 L 113.07422 22.289062 L 109.42773 19.634766 C 108.35851 18.851395 107.50855 18.467542 106.875 18.482422 L 106.86328 18.451172 C 107.65793 17.910012 108.1854 17.274677 108.44727 16.546875 C 108.71276 15.811875 108.7003 15.059124 108.4082 14.289062 C 107.8608 12.845859 106.82547 12.130066 105.30469 12.142578 z M 104.42969 14.265625 C 105.18157 14.276365 105.70139 14.662339 105.99023 15.423828 C 106.19227 15.956543 106.16407 16.469633 105.9082 16.962891 C 105.6559 17.448951 105.20615 17.802342 104.55664 18.025391 L 103.12891 18.517578 L 101.79102 14.988281 L 103.25977 14.482422 C 103.69721 14.3322 104.08792 14.260736 104.42969 14.265625 z M 92.607422 16.15625 L 89.84375 17.105469 L 89.683594 30.322266 L 92.296875 29.425781 L 92.214844 26.306641 L 96.859375 24.710938 L 98.914062 27.152344 L 101.52734 26.255859 L 92.607422 16.15625 z M 91.914062 18.53125 C 92.161299 18.98287 92.347046 19.282061 92.472656 19.429688 L 95.583984 23.128906 L 92.089844 24.328125 L 92.005859 19.574219 C 91.994959 19.261987 91.944749 18.919549 91.855469 18.550781 L 91.914062 18.53125 z M 83.998047 19.113281 L 77.121094 21.474609 L 81.537109 33.121094 L 88.693359 30.664062 L 87.984375 28.796875 L 83.222656 30.431641 L 82.058594 27.361328 L 86.224609 25.931641 L 85.515625 24.064453 L 81.349609 25.494141 L 80.224609 22.527344 L 84.710938 20.988281 L 83.998047 19.113281 z M 74.171875 22.486328 L 71.896484 23.269531 L 74.533203 30.222656 C 74.8673 31.103477 75.095933 31.639758 75.21875 31.830078 L 75.185547 31.841797 C 74.982341 31.673122 74.672663 31.438633 74.255859 31.140625 L 66.066406 25.271484 L 63.396484 26.1875 L 67.814453 37.833984 L 70.097656 37.048828 L 67.449219 30.0625 C 67.133127 29.229147 66.882102 28.637028 66.697266 28.283203 L 66.730469 28.271484 C 66.982077 28.501034 67.280952 28.7376 67.626953 28.982422 L 76.085938 34.992188 L 78.589844 34.132812 L 74.171875 22.486328 z "
       xlink:href="#path55395"
       id="path55427"
       inkscape:href="#path55395"
       d="m 105.2832,9.5742188 c -1.06305,0.00877 -2.10811,0.2367446 -3.1875,0.6074222 l -4.199216,1.441406 a 2.5693604,2.5693604 0 0 0 -1.568359,3.341797 l 1.011719,2.667968 -2.806641,-3.177734 a 2.5693604,2.5693604 0 0 0 -2.759765,-0.728516 l -2.763672,0.949219 a 2.5693604,2.5693604 0 0 0 -1.734375,2.398438 l -0.05078,4.169922 a 2.5693604,2.5693604 0 0 0 -0.111328,-1.167969 l -0.71289,-1.875 a 2.5693604,2.5693604 0 0 0 -3.236329,-1.517578 l -6.876953,2.361328 a 2.5693604,2.5693604 0 0 0 -1.505859,1.689453 2.5693604,2.5693604 0 0 0 -1.445312,-0.677734 l -2.275391,0.783203 a 2.5693604,2.5693604 0 0 0 -1.566406,3.339844 L 69.697266,24.712891 67.5625,23.183594 A 2.5693604,2.5693604 0 0 0 65.232422,22.841797 L 62.5625,23.757812 a 2.5693604,2.5693604 0 0 0 -1.568359,3.341797 l 4.417968,11.646485 a 2.5693604,2.5693604 0 0 0 3.238282,1.517578 l 2.283203,-0.785156 A 2.5693604,2.5693604 0 0 0 72.5,36.138672 l -0.28125,-0.744141 2.378906,1.691407 a 2.5693604,2.5693604 0 0 0 2.322266,0.335937 L 79.423828,36.5625 a 2.5693604,2.5693604 0 0 0 1.546875,-1.669922 2.5693604,2.5693604 0 0 0 1.400391,0.658203 l 7.15625,-2.457031 a 2.5693604,2.5693604 0 0 0 0.589844,-0.402344 2.5693604,2.5693604 0 0 0 0.40039,0.06055 l 2.613281,-0.896484 a 2.5693604,2.5693604 0 0 0 1.734375,-2.498047 l -0.0332,-1.234375 1.195313,-0.410156 0.921875,1.09375 a 2.5693604,2.5693604 0 0 0 2.798828,0.77539 l 2.613283,-0.896484 a 2.5693604,2.5693604 0 0 0 1.06055,-0.820313 2.5693604,2.5693604 0 0 0 0.5625,0.263672 l 2.39257,-0.822265 a 2.5693604,2.5693604 0 0 0 1.63867,-2.580079 l 0.72461,0.554688 a 2.5693604,2.5693604 0 0 0 2.39844,0.390625 l 2.77149,-0.953125 a 2.5693604,2.5693604 0 0 0 0.67578,-4.505859 l -3.64063,-2.650391 -0.004,-0.002 c -0.0394,-0.02885 -0.078,-0.04572 -0.11719,-0.07422 0.009,-0.02439 0.0302,-0.04185 0.0391,-0.06641 0.46441,-1.285693 0.42704,-2.774893 -0.0527,-4.041016 v -0.002 C 109.98156,11.193568 107.61907,9.5550007 105.2832,9.5742188 Z M 87.222656,21.46875 l -0.01758,1.349609 a 2.5693604,2.5693604 0 0 0 -0.503906,-0.236328 2.5693604,2.5693604 0 0 0 0.521484,-1.113281 z"
       transform="translate(0,-1.6076667e-4)" />
    <path
       id="path55395"
       style="font-weight:bold;font-size:17.7484px;line-height:1.25;font-family:'Malgun Gothic';-inkscape-font-specification:'Malgun Gothic Bold';fill:#ff6600;stroke-width:0.264583"
       d="m 105.30517,12.143351 c -0.69126,0.0057 -1.48319,0.161735 -2.37556,0.468189 l -4.199221,1.441772 4.417291,11.646316 2.39365,-0.822172 -1.74356,-4.596617 0.87333,-0.300241 c 0.32476,-0.111524 0.66405,-0.117612 1.01803,-0.0186 0.35399,0.09901 0.84795,0.39161 1.48156,0.877464 l 3.13263,2.402438 2.7714,-0.951878 -3.64628,-2.655136 c -1.06922,-0.783371 -1.92031,-1.167781 -2.55386,-1.152901 l -0.0119,-0.03152 c 0.79465,-0.54116 1.32253,-1.175959 1.5844,-1.903761 0.26549,-0.735 0.2523,-1.487165 -0.0398,-2.257227 -0.5474,-1.443204 -1.58135,-2.158632 -3.10213,-2.14612 z m -0.87643,2.121834 c 0.75188,0.01074 1.27231,0.396579 1.56115,1.158068 0.20204,0.532715 0.17477,1.046184 -0.0811,1.539442 -0.2523,0.48606 -0.70286,0.840451 -1.35237,1.0635 l -1.42782,0.490411 -1.33842,-3.528468 1.46968,-0.504878 c 0.43744,-0.150222 0.82715,-0.222964 1.16892,-0.218075 z m -11.821458,1.89084 -2.763122,0.949296 -0.15968,13.217797 2.611715,-0.897101 -0.0822,-3.119708 4.644653,-1.594733 2.055681,2.441709 2.612231,-0.897101 z m -0.693494,2.375567 c 0.247237,0.45162 0.433527,0.751025 0.559137,0.898652 l 3.111422,3.697964 -3.493822,1.199928 -0.0853,-4.754748 c -0.0109,-0.312232 -0.0611,-0.652875 -0.15038,-1.021643 z m -7.915258,0.580842 -6.878135,2.362129 4.416785,11.646317 7.156156,-2.45773 -0.708487,-1.867069 -4.761982,1.635559 -1.16427,-3.070098 4.165637,-1.430404 -0.707967,-1.867069 -4.166155,1.430403 -1.124995,-2.966743 4.484997,-1.539957 z m -9.826273,3.374472 -2.276348,0.781862 2.638081,6.9541 c 0.334097,0.880821 0.562414,1.416817 0.685231,1.607137 l -0.03359,0.01138 C 74.982425,31.67271 74.67226,31.439176 74.255456,31.141168 l -8.188132,-5.870443 -2.670638,0.916739 4.417304,11.646318 2.284097,-0.784963 -2.64945,-6.985622 c -0.316092,-0.833353 -0.566541,-1.426945 -0.751377,-1.78077 l 0.03359,-0.01188 c 0.251608,0.22955 0.550066,0.466762 0.896067,0.711584 l 8.459433,6.010486 2.503207,-0.859379 z" />
    <text
       xml:space="preserve"
       style="font-size:4.23333px;line-height:1.25;font-family:'Exotc350 DmBd BT';-inkscape-font-specification:'Exotc350 DmBd BT';stroke-width:0.264583"
       x="149.01495"
       y="33.393246"
       id="text58831"><tspan
         sodipodi:role="line"
         id="tspan58829"
         style="stroke-width:0.264583"
         x="149.01495"
         y="33.393246" /></text>
    <path
       style="font-weight:bold;font-size:20.4322px;line-height:1.25;font-family:'Microsoft New Tai Lue';-inkscape-font-specification:'Microsoft New Tai Lue Bold';fill:#ffffff;stroke-width:0.264583"
       sodipodi:type="inkscape:offset"
       inkscape:radius="0.98163402"
       inkscape:original="M 165.24219 2.828125 L 163.01953 3.7636719 A 2.5383076 2.5383076 0 0 0 161.80859 5.75 A 2.5383076 2.5383076 0 0 0 159.55273 5.2246094 L 157.1543 6.2324219 A 2.5383076 2.5383076 0 0 0 156.0957 7.5117188 C 155.79684 7.4878028 155.49686 7.4094285 155.20508 7.4335938 C 154.39325 7.5008304 153.61646 7.7204472 152.85938 8.0390625 L 149.5332 9.4394531 A 2.5383076 2.5383076 0 0 0 149.03906 10.652344 A 2.5383076 2.5383076 0 0 0 147.82422 10.158203 L 142.45117 12.419922 A 2.5383076 2.5383076 0 0 0 142.23828 12.943359 A 2.5383076 2.5383076 0 0 0 141.33398 12.890625 L 139.13867 13.814453 A 2.5383076 2.5383076 0 0 0 137.70898 16.435547 A 2.5383076 2.5383076 0 0 0 134.83789 15.625 L 132.57617 16.576172 A 2.5383076 2.5383076 0 0 0 131.54297 20.457031 L 138.97656 30.191406 C 137.51167 31.211573 136.31132 32.610691 135.86328 34.359375 A 2.5383076 2.5383076 0 0 0 135.86133 34.365234 C 135.29386 36.601079 135.62852 38.989153 136.60547 41.310547 C 137.52409 43.493366 138.8734 45.29991 140.73633 46.400391 C 142.62933 47.518639 145.05071 47.641159 147.08008 46.787109 C 148.3689 46.244718 149.48629 45.451152 150.32422 44.380859 A 2.5383076 2.5383076 0 0 0 151.27734 44.769531 L 156.82617 42.435547 A 2.5383076 2.5383076 0 0 0 158.25195 40.736328 C 159.55494 40.973628 160.88693 40.977653 162.10547 40.464844 C 163.63268 39.822119 164.70719 38.503338 165.44531 37.015625 A 2.5383076 2.5383076 0 0 0 166.07031 37.523438 C 166.82801 37.672111 167.60335 37.669746 168.36133 37.550781 A 2.5383076 2.5383076 0 0 0 168.36719 37.548828 C 169.09342 37.433164 169.80367 37.224783 170.48633 36.9375 C 171.1782 36.646329 171.82931 36.266814 172.41602 35.800781 L 172.41797 35.800781 C 173.07287 35.28206 173.63129 34.618091 174.01758 33.867188 A 2.5383076 2.5383076 0 0 0 175.62695 34.523438 L 181.21484 32.171875 A 2.5383076 2.5383076 0 0 0 182.57031 28.847656 L 181.63086 26.615234 A 2.5383076 2.5383076 0 0 0 180.01562 25.957031 A 2.5383076 2.5383076 0 0 0 180.01172 24.005859 L 179.07227 21.773438 A 2.5383076 2.5383076 0 0 0 178.16992 20.882812 A 2.5383076 2.5383076 0 0 0 178.15625 18.958984 L 177.21289 16.71875 A 2.5383076 2.5383076 0 0 0 173.88867 15.363281 L 170.33008 16.861328 L 169.0293 13.769531 L 168.76367 5.0898438 A 2.5383076 2.5383076 0 0 0 165.24219 2.828125 z M 155.20703 13.482422 L 154.66602 14.806641 C 154.64838 14.799591 154.65043 14.810873 154.63281 14.802734 C 154.22004 14.612013 154.15304 14.35191 154.22852 14.53125 C 154.26529 14.618631 154.218 14.434163 154.25195 14.314453 C 154.30784 14.117722 154.69672 13.696951 154.83984 13.636719 L 155.20703 13.482422 z M 166.00781 18.640625 C 165.99841 18.642414 165.98986 18.648567 165.98047 18.650391 C 165.97601 18.651309 165.97125 18.649466 165.9668 18.650391 L 166.00781 18.640625 z M 162.20117 20.414062 C 162.19726 20.417341 162.19531 20.422492 162.19141 20.425781 C 162.18781 20.428859 162.18328 20.430509 162.17969 20.433594 L 162.20117 20.414062 z M 160.08203 24.947266 C 160.08201 24.950027 160.084 24.952318 160.08398 24.955078 C 160.08398 24.957116 160.08204 24.9589 160.08203 24.960938 L 160.08203 24.947266 z M 150.8125 28.792969 C 150.70703 29.534198 150.65304 30.281547 150.72461 31.041016 L 149.93359 29.162109 L 150.8125 28.792969 z M 158.48242 31.744141 C 158.50391 31.777996 158.55599 31.88737 158.56055 31.908203 C 158.5349 31.851427 158.52173 31.8695 158.49609 31.808594 C 158.48243 31.776118 158.49524 31.77583 158.48242 31.744141 z M 144.89648 36.154297 L 145.90234 38.541016 A 2.5383076 2.5383076 0 0 0 145.2207 38.910156 C 145.00371 39.291634 144.8452 39.422051 144.52539 39.556641 C 144.31043 39.647109 144.53151 39.659331 144.3457 39.539062 C 144.11704 39.398561 143.76755 39.059442 143.41211 38.214844 C 143.03631 37.321896 143.04143 36.812849 143.10938 36.537109 C 143.18497 36.230328 143.05821 36.39485 143.29102 36.296875 C 143.60992 36.162666 143.7554 36.154216 144.07812 36.242188 A 2.5383076 2.5383076 0 0 0 144.89648 36.154297 z "
       xlink:href="#path82454"
       id="path82654"
       inkscape:href="#path82454"
       d="m 166.5293,1.6679688 c -0.5662,-0.049004 -1.1439,0.035365 -1.66797,0.2558593 l -2.22266,0.9355469 a 0.98173218,0.98173218 0 0 0 -0.13086,0.066406 c -0.56795,0.3461099 -0.96866,0.8828756 -1.26367,1.4785157 -0.62796,-0.2047349 -1.28852,-0.2930929 -1.92969,-0.1328125 a 0.98173218,0.98173218 0 0 0 -0.14257,0.048828 l -2.39844,1.0078125 a 0.98173218,0.98173218 0 0 0 -0.12891,0.066406 c -0.41656,0.2532829 -0.63662,0.706055 -0.91601,1.1054688 -0.18638,-0.028246 -0.30377,-0.069747 -0.60352,-0.044922 -0.93573,0.077498 -1.81678,0.3305098 -2.64648,0.6796875 l -3.32618,1.4003906 a 0.98173218,0.98173218 0 0 0 -0.40234,0.3125 c -0.12494,0.1650971 -0.13857,0.3838302 -0.23242,0.5683594 -0.19826,-0.061964 -0.3642,-0.2065197 -0.57031,-0.2324218 a 0.98173218,0.98173218 0 0 0 -0.50391,0.070312 l -5.37305,2.2617188 a 0.98173218,0.98173218 0 0 0 -0.46875,0.423828 c -0.12983,0.0013 -0.25783,-0.03913 -0.38672,-0.02344 a 0.98173218,0.98173218 0 0 0 -0.26172,0.07031 l -2.19531,0.923828 a 0.98173218,0.98173218 0 0 0 -0.0391,0.01758 c -0.81272,0.385314 -1.3299,1.135732 -1.6543,1.972657 -0.82442,-0.35311 -1.72313,-0.507962 -2.5664,-0.197266 a 0.98173218,0.98173218 0 0 0 -0.041,0.01758 l -2.26172,0.951172 c -0.98704,0.415014 -1.76164,1.303187 -2.03711,2.337891 -0.27547,1.034704 -0.0446,2.192115 0.60547,3.042968 l 6.90039,9.03711 c -1.24335,1.054557 -2.32108,2.343567 -2.75195,4.023437 -1.5e-4,5.89e-4 1.5e-4,0.0014 0,0.002 a 0.98173218,0.98173218 0 0 0 -0.002,0.0078 c -0.63111,2.486589 -0.24821,5.098991 0.79101,7.568359 0.97682,2.3211 2.44589,4.320503 4.53516,5.554688 2.18158,1.288721 4.90699,1.420669 7.22461,0.445312 1.18257,-0.497676 2.21356,-1.252884 3.09179,-2.179687 0.18597,0.06833 0.35207,0.186596 0.54688,0.222656 a 0.98173218,0.98173218 0 0 0 0.55859,-0.06055 l 5.54883,-2.333984 a 0.98173218,0.98173218 0 0 0 0.0195,-0.0078 c 0.69901,-0.312569 1.20744,-0.906024 1.57617,-1.576172 1.21055,0.140795 2.46924,0.124332 3.6836,-0.386718 1.43595,-0.604318 2.41283,-1.732002 3.1914,-2.958985 a 0.98173218,0.98173218 0 0 0 0.20313,0.07617 c 0.88379,0.173414 1.7755,0.169711 2.63281,0.03516 a 0.98173218,0.98173218 0 0 0 0.15625,-0.03906 l -0.14844,0.03516 c 0.80891,-0.128832 1.5951,-0.359906 2.34571,-0.675781 0.77,-0.324054 1.49972,-0.746889 2.16015,-1.271485 0.53327,-0.422376 0.91055,-1.011291 1.30469,-1.578124 0.41965,0.192724 0.79628,0.494283 1.25781,0.511718 a 0.98173218,0.98173218 0 0 0 0.41797,-0.07617 l 5.58789,-2.351562 c 0.84951,-0.357322 1.54656,-1.060683 1.89453,-1.914063 0.34798,-0.853379 0.34181,-1.845853 -0.0156,-2.695312 l -0.93945,-2.232422 a 0.98173218,0.98173218 0 0 0 -0.24414,-0.345703 c -0.32275,-0.293323 -0.78038,-0.326201 -1.1875,-0.482422 0.0728,-0.604513 0.0497,-1.217406 -0.18555,-1.779297 a 0.98173218,0.98173218 0 0 0 -0.002,-0.002 l -0.93946,-2.232422 a 0.98173218,0.98173218 0 0 0 -0.0625,-0.123047 c -0.1721,-0.287428 -0.46102,-0.471829 -0.70703,-0.699219 0.12235,-0.66919 0.11791,-1.362132 -0.14453,-1.990234 a 0.98173218,0.98173218 0 0 0 -0.002,-0.002 l -0.94336,-2.240234 c -0.35732,-0.849507 -1.06068,-1.546561 -1.91407,-1.894532 -0.85338,-0.34797 -1.84585,-0.34181 -2.69531,0.01563 l -2.65429,1.117188 -0.84766,-2.019531 -0.26172,-8.4960941 c -0.0349,-1.1366008 -0.65844,-2.239002 -1.61523,-2.8535157 -0.4784,-0.3072568 -1.03342,-0.4900589 -1.59961,-0.5390624 z m -7.94532,30.1250002 -0.92968,0.476562 c -0.0354,-0.05573 -0.018,-0.02321 -0.01,-0.0098 -0.002,-8.08e-4 -2.5e-4,0.05258 -0.043,-0.142578 z m -14.3125,5.402343 0.38477,0.917969 c -0.009,0.0066 -0.0205,0.0089 -0.0293,0.01563 a 0.98173218,0.98173218 0 0 0 -0.0742,0.08398 c -0.0923,-0.131111 -0.10444,-0.06553 -0.23632,-0.378907 -0.19053,-0.45272 -0.13765,-0.467844 -0.15039,-0.626953 0.0355,5.22e-4 0.0699,-0.01116 0.10546,-0.01172 z m -0.79492,0.0625 c -0.005,0.0026 -0.0495,0.01563 -0.0664,0.01953 0.0219,-0.0049 0.0438,-0.01334 0.0664,-0.01953 z"
       transform="translate(0,-0.00590457)" />
    <path
       style="font-weight:bold;font-size:20.4322px;line-height:1.25;font-family:'Microsoft New Tai Lue';-inkscape-font-specification:'Microsoft New Tai Lue Bold';fill:#000000;stroke-width:0.264583"
       sodipodi:type="inkscape:offset"
       inkscape:radius="2.5380538"
       inkscape:original="M 166.22656 5.1484375 L 164.00391 6.0839844 L 164.41016 11.320312 C 164.43026 11.586021 164.49749 11.9345 164.61328 12.367188 L 164.58789 12.378906 C 164.22712 11.848708 164.015 11.544968 163.95312 11.470703 L 160.53516 7.5449219 L 158.13672 8.5527344 L 164.42773 15.232422 L 166.23438 19.527344 L 168.33398 18.644531 L 166.50586 14.298828 L 166.22656 5.1484375 z M 155.41406 9.9433594 C 154.93188 9.9832941 154.40895 10.121512 153.84375 10.359375 L 150.51758 11.759766 L 155.6582 23.978516 L 157.75781 23.095703 L 155.78906 18.417969 L 156.35352 18.179688 C 156.48345 18.125007 156.61845 18.112355 156.75781 18.140625 C 156.8991 18.161415 157.04809 18.218089 157.20508 18.3125 C 157.36402 18.3994 157.53244 18.516579 157.71094 18.662109 C 157.88944 18.807644 158.08428 18.976913 158.29297 19.169922 L 161.06445 21.705078 L 163.47461 20.689453 L 160.19336 17.818359 C 160.02352 17.66918 159.84233 17.520747 159.64844 17.375 C 159.45649 17.221756 159.26329 17.086177 159.07031 16.966797 C 158.87732 16.847423 158.69033 16.751928 158.50781 16.681641 C 158.32289 16.605671 158.14883 16.568792 157.98633 16.570312 L 157.97266 16.537109 C 158.23862 16.284764 158.45401 15.999351 158.62109 15.681641 C 158.7925 15.362101 158.90877 15.018599 158.96875 14.652344 C 159.02875 14.286088 159.03342 13.903696 158.98242 13.503906 C 158.92902 13.098434 158.8121 12.681892 158.63281 12.255859 C 157.93357 10.594331 156.86062 9.8235553 155.41406 9.9433594 z M 148.80859 12.478516 L 143.43555 14.740234 L 148.57812 26.958984 L 154.16406 24.607422 L 153.22461 22.375 L 149.73633 23.84375 L 148.56055 21.048828 L 151.60742 19.765625 L 150.66797 17.533203 L 147.62109 18.816406 L 146.47656 16.097656 L 149.75195 14.720703 L 148.80859 12.478516 z M 155.69727 12.478516 C 156.05326 12.643002 156.34364 12.993382 156.56836 13.527344 C 156.78351 14.038584 156.82471 14.52512 156.69336 14.988281 C 156.56393 15.443935 156.27466 15.767469 155.82422 15.957031 L 154.91406 16.339844 L 153.48242 12.939453 L 154.43164 12.541016 C 154.91889 12.335963 155.34127 12.314029 155.69727 12.478516 z M 142.31836 15.210938 L 140.12305 16.134766 L 141.75781 25.416016 C 141.84511 25.914215 141.95214 26.360575 142.08203 26.753906 L 142.04297 26.769531 C 141.87313 26.426445 141.63938 26.04723 141.3418 25.630859 L 135.82227 17.945312 L 133.56055 18.896484 L 141.87305 29.78125 L 144.25195 28.779297 L 142.31836 15.210938 z M 174.87305 17.683594 L 169.5 19.945312 L 174.64258 32.164062 L 180.23047 29.8125 L 179.29102 27.580078 L 175.80078 29.048828 L 174.625 26.253906 L 177.67188 24.970703 L 176.73242 22.738281 L 173.68555 24.021484 L 172.54102 21.302734 L 175.81641 19.923828 L 174.87305 17.683594 z M 167.66992 21.027344 C 167.28681 21.001344 166.8903 21.030564 166.48242 21.115234 C 166.07648 21.192454 165.63157 21.332966 165.14648 21.537109 C 164.65275 21.744896 164.21403 22.011923 163.83203 22.339844 C 163.44764 22.66209 163.14906 23.042912 162.93555 23.480469 C 162.72636 23.916199 162.6204 24.40513 162.61914 24.947266 C 162.61514 25.483724 162.74788 26.068871 163.01562 26.705078 C 163.35747 27.517382 163.82723 28.136284 164.42383 28.560547 C 165.02476 28.982986 165.77301 29.240611 166.66797 29.332031 C 167.01836 29.365111 167.34723 29.40347 167.65625 29.447266 C 167.96528 29.491066 168.24183 29.554349 168.48633 29.638672 C 168.73517 29.721172 168.95193 29.834809 169.13477 29.978516 C 169.3176 30.122229 169.45818 30.312201 169.55859 30.550781 C 169.63269 30.726874 169.67036 30.905217 169.66992 31.085938 C 169.66792 31.260966 169.62354 31.433405 169.53711 31.603516 C 169.45261 31.766128 169.32333 31.922025 169.15039 32.068359 C 168.98179 32.212867 168.76419 32.339986 168.5 32.451172 C 168.04956 32.640736 167.56103 32.727564 167.0332 32.708984 C 166.50298 32.684724 165.96342 32.543203 165.41211 32.287109 L 166.55859 35.013672 C 166.99204 35.098722 167.46184 35.102998 167.96875 35.023438 C 168.47998 34.942017 168.99088 34.7932 169.50195 34.578125 C 170.00002 34.368514 170.44634 34.107631 170.83984 33.794922 C 171.23769 33.480391 171.54538 33.109788 171.76367 32.683594 C 171.97957 32.251724 172.08859 31.764792 172.08984 31.222656 C 172.09284 30.673013 171.95093 30.056654 171.66406 29.375 C 171.45608 28.880802 171.21915 28.472239 170.95117 28.150391 C 170.68079 27.822868 170.37713 27.559763 170.04297 27.359375 C 169.70884 27.158982 169.34563 27.0077 168.95117 26.90625 C 168.55865 26.797295 168.13237 26.719614 167.67383 26.671875 C 167.33882 26.639005 167.03564 26.599885 166.76172 26.554688 C 166.4854 26.503808 166.24065 26.439543 166.0293 26.361328 C 165.81555 26.277428 165.63361 26.173251 165.48438 26.048828 C 165.33275 25.918727 165.21497 25.751371 165.12891 25.546875 C 165.05001 25.35942 165.01587 25.174765 165.02734 24.996094 C 165.03634 24.811745 165.085 24.639042 165.17383 24.474609 C 165.26263 24.310178 165.39346 24.158357 165.56445 24.019531 C 165.73305 23.875024 165.93563 23.752592 166.17383 23.652344 C 166.34708 23.579434 166.53728 23.518768 166.74219 23.472656 C 166.95143 23.424716 167.16855 23.396842 167.39453 23.388672 C 167.61811 23.374812 167.84298 23.384656 168.07031 23.416016 C 168.30197 23.445566 168.52454 23.497832 168.74023 23.574219 L 167.66992 21.027344 z M 157.93555 25.074219 C 157.27841 25.014781 156.61795 25.126464 155.95312 25.40625 C 154.54552 25.998626 153.66566 27.069125 153.31445 28.621094 C 152.96326 30.173055 153.19501 31.916306 154.00781 33.847656 C 154.77757 35.676757 155.82184 36.98527 157.14258 37.773438 C 158.46092 38.555917 159.78711 38.666861 161.12109 38.105469 C 162.4897 37.529492 163.35103 36.474507 163.70508 34.941406 C 164.06345 33.406481 163.83926 31.677801 163.03125 29.757812 C 162.24475 27.888949 161.1999 26.557172 159.89648 25.761719 C 159.24695 25.363078 158.59268 25.133656 157.93555 25.074219 z M 157.96094 27.660156 C 158.31658 27.717811 158.67145 27.878921 159.02539 28.144531 C 159.73329 28.675745 160.35363 29.575059 160.88672 30.841797 C 161.39831 32.057412 161.58635 33.098884 161.45117 33.964844 C 161.31359 34.825119 160.88345 35.406547 160.16016 35.710938 C 159.45853 36.006216 158.74321 35.893198 158.01367 35.371094 C 157.28414 34.848988 156.66544 33.983371 156.15625 32.773438 C 155.65422 31.580545 155.46816 30.530637 155.59766 29.626953 C 155.72478 28.717586 156.15629 28.108687 156.89258 27.798828 C 157.24989 27.648454 157.6053 27.602502 157.96094 27.660156 z M 147.25 29.308594 L 145.15039 30.193359 L 150.29297 42.410156 L 155.8418 40.076172 L 154.90234 37.84375 L 151.45117 39.294922 L 147.25 29.308594 z M 143.63086 31.123047 C 142.88049 31.084457 142.05014 31.255903 141.14062 31.638672 C 139.67238 32.256569 138.7332 33.366857 138.32227 34.970703 C 137.91567 36.572729 138.12295 38.352571 138.94531 40.306641 C 139.71746 42.141424 140.745 43.437799 142.02734 44.195312 C 143.30969 44.95283 144.66646 45.029224 146.0957 44.427734 C 147.19147 43.966587 147.98804 43.378034 148.48633 42.660156 L 147.42773 40.146484 C 146.96768 40.955249 146.32835 41.532462 145.50977 41.876953 C 144.65222 42.23785 143.82422 42.174889 143.02344 41.689453 C 142.22027 41.198335 141.56951 40.361218 141.07227 39.179688 C 140.55351 37.94703 140.41108 36.857588 140.64453 35.910156 C 140.87798 34.962724 141.43176 34.305687 142.30664 33.9375 C 143.10356 33.602123 143.91683 33.547386 144.74609 33.773438 L 143.63086 31.123047 z "
       xlink:href="#path82406"
       id="path82454"
       inkscape:href="#path82406"
       d="m 165.24219,2.8085938 -2.22266,0.9355468 a 2.5383076,2.5383076 0 0 0 -1.21094,1.9863282 2.5383076,2.5383076 0 0 0 -2.25586,-0.5253907 l -2.39843,1.0078125 a 2.5383076,2.5383076 0 0 0 -1.0586,1.2792969 c -0.29886,-0.023916 -0.59884,-0.1022903 -0.89062,-0.078125 -0.81183,0.067237 -1.58862,0.2868534 -2.3457,0.6054687 l -3.32618,1.4003907 a 2.5383076,2.5383076 0 0 0 -0.49414,1.2128901 2.5383076,2.5383076 0 0 0 -1.21484,-0.49414 l -5.37305,2.261719 a 2.5383076,2.5383076 0 0 0 -0.21289,0.523437 2.5383076,2.5383076 0 0 0 -0.9043,-0.05273 l -2.19531,0.923828 a 2.5383076,2.5383076 0 0 0 -1.42969,2.621094 2.5383076,2.5383076 0 0 0 -2.87109,-0.810547 l -2.26172,0.951172 a 2.5383076,2.5383076 0 0 0 -1.0332,3.880859 l 7.43359,9.734375 c -1.46489,1.020167 -2.66524,2.419285 -3.11328,4.167969 a 2.5383076,2.5383076 0 0 0 -0.002,0.0059 c -0.56747,2.235845 -0.23281,4.623919 0.74414,6.945313 0.91862,2.182819 2.26793,3.989362 4.13086,5.089843 1.893,1.118248 4.31438,1.240769 6.34375,0.386719 1.28882,-0.542391 2.40621,-1.335957 3.24414,-2.40625 A 2.5383076,2.5383076 0 0 0 151.27734,44.75 l 5.54883,-2.333984 a 2.5383076,2.5383076 0 0 0 1.42578,-1.699219 c 1.30299,0.2373 2.63498,0.241324 3.85352,-0.271485 1.52721,-0.642725 2.60172,-1.961505 3.33984,-3.449218 a 2.5383076,2.5383076 0 0 0 0.625,0.507812 c 0.7577,0.148674 1.53304,0.146309 2.29102,0.02734 a 2.5383076,2.5383076 0 0 0 0.006,-0.002 c 0.72623,-0.115664 1.43648,-0.324045 2.11914,-0.611328 0.69187,-0.291171 1.34298,-0.670686 1.92969,-1.136719 h 0.002 c 0.6549,-0.518721 1.21332,-1.182691 1.59961,-1.933594 a 2.5383076,2.5383076 0 0 0 1.60937,0.65625 l 5.58789,-2.351562 a 2.5383076,2.5383076 0 0 0 1.35547,-3.324219 l -0.93945,-2.232422 a 2.5383076,2.5383076 0 0 0 -1.61524,-0.658203 2.5383076,2.5383076 0 0 0 -0.004,-1.951172 l -0.93945,-2.232422 a 2.5383076,2.5383076 0 0 0 -0.90235,-0.890625 2.5383076,2.5383076 0 0 0 -0.0137,-1.923828 l -0.94336,-2.240234 A 2.5383076,2.5383076 0 0 0 173.88867,15.34375 L 170.33008,16.841797 169.0293,13.75 168.76367,5.0703125 a 2.5383076,2.5383076 0 0 0 -3.52148,-2.2617187 z m -10.03516,10.6542972 -0.54101,1.324218 c -0.0176,-0.007 -0.0156,0.0042 -0.0332,-0.0039 -0.41277,-0.190721 -0.47977,-0.450824 -0.40429,-0.271484 0.0368,0.08738 -0.0105,-0.09709 0.0234,-0.216797 0.0559,-0.196731 0.44477,-0.617502 0.58789,-0.677734 z m 4.21289,0.849609 c 0.0176,0.0072 0.0423,0.01888 0.0371,0.01758 -0.0133,-0.0052 -0.0237,-0.01243 -0.0371,-0.01758 z m 1.44727,2.550781 c -0.003,0.0059 -0.008,0.01237 -0.008,0.0098 0.002,-0.0037 0.006,-0.0061 0.008,-0.0098 z m 5.14062,1.757813 c -0.009,0.0018 -0.018,0.0079 -0.0273,0.0098 -0.004,9.18e-4 -0.009,-9.25e-4 -0.0137,0 z m -3.80664,1.773437 c -0.004,0.0033 -0.006,0.0084 -0.01,0.01172 -0.004,0.0031 -0.008,0.0047 -0.0117,0.0078 z m -2.11914,4.533203 c -2e-5,0.0028 0.002,0.0051 0.002,0.0078 0,0.002 -0.002,0.0038 -0.002,0.0059 z m -9.26953,3.845704 c -0.10547,0.741229 -0.15946,1.488577 -0.0879,2.248046 l -0.79102,-1.878906 z m 7.66992,2.951171 c 0.0215,0.03385 0.0736,0.14323 0.0781,0.164063 -0.0257,-0.05678 -0.0388,-0.0387 -0.0645,-0.09961 -0.0137,-0.03248 -8.5e-4,-0.03276 -0.0137,-0.06445 z m -13.58594,4.410157 1.00586,2.386718 a 2.5383076,2.5383076 0 0 0 -0.68164,0.369141 c -0.21699,0.381478 -0.3755,0.511894 -0.69531,0.646484 -0.21496,0.09047 0.006,0.102691 -0.17969,-0.01758 -0.22866,-0.140501 -0.57815,-0.479621 -0.93359,-1.324219 -0.3758,-0.892948 -0.37068,-1.401994 -0.30273,-1.677734 0.0756,-0.306781 -0.0512,-0.142259 0.18164,-0.240234 0.3189,-0.134209 0.46438,-0.14266 0.7871,-0.05469 a 2.5383076,2.5383076 0 0 0 0.81836,-0.08789 z"
       transform="translate(0,0.02036513)" />
    <path
       id="path82406"
       style="font-weight:bold;font-size:20.4322px;line-height:1.25;font-family:'Microsoft New Tai Lue';-inkscape-font-specification:'Microsoft New Tai Lue Bold';fill:#00aa00;stroke-width:0.264583"
       d="m 133.56055,18.896039 8.31271,10.88452 2.37778,-1.000672 -1.93276,-13.569473 -2.1959,0.924125 1.63473,9.281508 c 0.0873,0.498199 0.19582,0.944358 0.32571,1.337689 l -0.0389,0.01638 c -0.16984,-0.343086 -0.40368,-0.722889 -0.70126,-1.13926 l -5.52106,-7.686349 z m 9.87494,-4.155795 5.14219,12.218804 5.58721,-2.351336 -0.93953,-2.232497 -3.48883,1.468246 -1.17615,-2.794763 3.0468,-1.282224 -0.93952,-2.232497 -3.04681,1.282225 -1.14388,-2.718073 3.27418,-1.377913 -0.9431,-2.240974 z m 7.08132,-2.980124 5.1422,12.218804 2.09838,-0.883089 -1.96858,-4.677722 0.56535,-0.237926 c 0.12993,-0.05468 0.26443,-0.06801 0.40379,-0.03974 0.14129,0.02079 0.29043,0.07839 0.44742,0.172801 0.15894,0.0869 0.3275,0.203117 0.506,0.348647 0.1785,0.145535 0.37199,0.314742 0.58068,0.507751 l 2.77228,2.534491 2.41015,-1.014296 -3.28126,-2.871906 c -0.16984,-0.149179 -0.35153,-0.29655 -0.54542,-0.442297 -0.19195,-0.153244 -0.38422,-0.289578 -0.5772,-0.408958 -0.19299,-0.119374 -0.38089,-0.21428 -0.56341,-0.284567 -0.18492,-0.07597 -0.35861,-0.113365 -0.52111,-0.111844 l -0.0143,-0.03392 c 0.26596,-0.252345 0.48247,-0.537202 0.64955,-0.854912 0.17141,-0.31954 0.28687,-0.662486 0.34685,-1.028741 0.06,-0.366256 0.0645,-0.749504 0.0135,-1.149294 -0.0534,-0.405472 -0.16958,-0.821162 -0.34887,-1.247195 -0.93232,-2.215371 -2.52902,-2.8473494 -4.78984,-1.895898 z m 7.62047,-3.2070201 6.29068,6.6801991 1.80737,4.294657 2.09839,-0.88309 -1.82879,-4.345526 -0.27933,-9.150149 -2.2217,0.9349894 0.40603,5.2355066 c 0.0201,0.265708 0.0878,0.614812 0.20359,1.0475 l -0.0258,0.01086 c -0.36077,-0.530198 -0.57198,-0.832537 -0.63385,-0.906802 l -3.41913,-3.9270935 z m -4.65424,4.3860901 0.94842,-0.399136 c 0.97449,-0.410106 1.68651,-0.08107 2.13594,0.986854 0.21515,0.51124 0.2569,0.998229 0.12555,1.46139 -0.12943,0.455654 -0.41919,0.778382 -0.86963,0.967944 l -0.90949,0.382755 z m -12.34183,18.699961 c -1.46824,0.617897 -2.40773,1.728496 -2.81866,3.332342 -0.4066,1.602026 -0.19868,3.380374 0.62368,5.334444 0.77215,1.834783 1.79939,3.131029 3.08173,3.888543 1.28235,0.757518 2.63804,0.835434 4.06728,0.233944 1.09577,-0.461147 1.89299,-1.050575 2.39128,-1.768453 l -1.05792,-2.513822 c -0.46005,0.808765 -1.09946,1.385388 -1.91804,1.729879 -0.85755,0.360897 -1.68656,0.298788 -2.48734,-0.186648 -0.80317,-0.491118 -1.45369,-1.327545 -1.95093,-2.509076 -0.51876,-1.232657 -0.6612,-2.32288 -0.42775,-3.270312 0.23345,-0.947432 0.78736,-1.605154 1.66224,-1.973341 0.79692,-0.335377 1.61036,-0.389939 2.43962,-0.163887 l -1.11518,-2.649863 c -0.75037,-0.03859 -1.58049,0.133481 -2.49001,0.51625 z m 14.8124,-6.233692 c -1.4076,0.592376 -2.28711,1.664561 -2.63832,3.21653 -0.35119,1.551961 -0.12048,3.293461 0.69232,5.224811 0.76976,1.829101 1.81494,3.138008 3.13568,3.926175 1.31834,0.78248 2.64466,0.892974 3.97864,0.331582 1.36861,-0.575977 2.22983,-1.630584 2.58388,-3.163685 0.35837,-1.534925 0.13353,-3.262431 -0.67448,-5.182419 -0.7865,-1.868864 -1.83141,-3.200937 -3.13483,-3.99639 -1.29907,-0.797282 -2.61325,-0.916176 -3.94289,-0.356604 z m 9.19242,-3.868567 c -0.49373,0.207787 -0.93147,0.475704 -1.31347,0.803625 -0.38439,0.322246 -0.68325,0.701944 -0.89676,1.139501 -0.20919,0.43573 -0.31449,0.924872 -0.31575,1.467008 -0.004,0.536458 0.12822,1.122821 0.39597,1.759028 0.34185,0.812304 0.81136,1.430553 1.40796,1.854816 0.60093,0.422439 1.34863,0.679112 2.24359,0.770532 0.35039,0.03308 0.68033,0.0715 0.98935,0.115296 0.30903,0.0438 0.58579,0.10789 0.83029,0.192213 0.24884,0.0825 0.46449,0.195819 0.64733,0.339526 0.18283,0.143713 0.32457,0.334695 0.42498,0.573275 0.0741,0.176093 0.11086,0.354365 0.11042,0.535086 -0.002,0.175029 -0.0473,0.347511 -0.13373,0.517622 -0.0845,0.162612 -0.21343,0.317479 -0.38637,0.463813 -0.1686,0.144508 -0.38506,0.27228 -0.64925,0.383466 -0.45044,0.189564 -0.93931,0.274923 -1.46714,0.256343 -0.53022,-0.02426 -1.07093,-0.164429 -1.62224,-0.420523 l 1.14744,2.726551 c 0.43345,0.08505 0.90337,0.08806 1.41028,0.0085 0.51123,-0.08142 1.02236,-0.229746 1.53343,-0.444821 0.49807,-0.209611 0.94377,-0.470997 1.33727,-0.783706 0.39785,-0.314531 0.70641,-0.684685 0.9247,-1.110879 0.2159,-0.43187 0.32422,-0.918989 0.32547,-1.461125 0.003,-0.549643 -0.13838,-1.165304 -0.42525,-1.846958 -0.20798,-0.494198 -0.44631,-0.902206 -0.71429,-1.224054 -0.27038,-0.327523 -0.57253,-0.591584 -0.90669,-0.791972 -0.33413,-0.200393 -0.69836,-0.351351 -1.09282,-0.452801 -0.39252,-0.108955 -0.81794,-0.187145 -1.27648,-0.234884 -0.33501,-0.03287 -0.6396,-0.07207 -0.91352,-0.117268 -0.27632,-0.05088 -0.52011,-0.11522 -0.73146,-0.193435 -0.21375,-0.0839 -0.3955,-0.187969 -0.54473,-0.312392 -0.15162,-0.130101 -0.27032,-0.297393 -0.35638,-0.501889 -0.0789,-0.187455 -0.11251,-0.370794 -0.10104,-0.549465 0.009,-0.184349 0.058,-0.358706 0.14683,-0.523139 0.0888,-0.164431 0.21872,-0.315956 0.38971,-0.454782 0.1686,-0.144507 0.37213,-0.266843 0.61033,-0.367091 0.17325,-0.07291 0.36236,-0.132286 0.56727,-0.178398 0.20924,-0.04794 0.42676,-0.076 0.65274,-0.08417 0.22358,-0.01386 0.44911,-0.0053 0.67644,0.02606 0.23166,0.02955 0.45505,0.08272 0.67074,0.159107 l -1.07219,-2.547736 c -0.38311,-0.026 -0.77859,0.0032 -1.18647,0.08787 -0.40594,0.07722 -0.85142,0.218143 -1.33651,0.422286 z m -19.99479,8.655541 5.14204,12.21842 5.5483,-2.334959 -0.93954,-2.232498 -3.4499,1.451867 -4.2025,-9.985923 z m 24.34936,-10.247251 5.14204,12.218419 5.58722,-2.351339 -0.93954,-2.232498 -3.48883,1.46825 -1.17615,-2.794763 3.0468,-1.282224 -0.93937,-2.232112 -3.04681,1.282225 -1.14403,-2.718458 3.27417,-1.377912 -0.94294,-2.24059 z m -12.60879,7.853466 c 0.71463,-0.300748 1.42594,-0.185367 2.13382,0.345854 0.7079,0.531214 1.32817,1.430229 1.86126,2.696967 0.51159,1.215615 0.69984,2.256465 0.56466,3.122425 -0.13758,0.860275 -0.56793,1.442492 -1.29122,1.746883 -0.70163,0.295278 -1.41722,0.182147 -2.14676,-0.339957 -0.72953,-0.522106 -1.3486,-1.388239 -1.85779,-2.598172 -0.50203,-1.192892 -0.68857,-2.241051 -0.55907,-3.144735 0.12712,-0.909367 0.55881,-1.519406 1.2951,-1.829265 z" />
    <circle
       id="path82547"
       style="fill:#000000;stroke:#000000;stroke-width:0.264583"
       cx="121.92332"
       cy="78.421738"
       transform="rotate(-22.82344)"
       r="0.0069494853" />
    <circle
       id="path82549"
       style="fill:#000000;stroke:#000000;stroke-width:0.264583"
       cx="121.92332"
       cy="78.421738"
       transform="rotate(-22.82344)"
       r="0.0069494853" />
  </g>
</svg>
